PathFileType	4	(X/Y/Z)	/Users/itak/Documents/Research/Walk-IL/dataset/trc/00289_00010.trc
DataRate	CameraRate	NumFrames	NumMarkers	Units	OrigDataRate	OrigDataStartFrame	OrigNumFrames
100.000000	100.000000	4	53	mm	100.000000	82	662
Frame#	Time	RPSI			LPSI			L3			STRN			T10			C7			CLAV			RBAK			LBAK			LSHO			LUPA			LAEL			LAOL			LWTS			LWPS			LFRA			LIFD			LHPS			LHTS			RSHO			RUPA			RAEL			RAOL			RWTS			RWPS			RFRA			RIFD			RHTS			RHPS			RBHD			LFHD			RFHD			LBHD			LHIP			RHIP			RASI			LASI			LKNE			LTHI			LANK			LTIP			LTOE			LMT1			LMT5			LHEE			RKNE			RTHI			RANK			RTIP			RTOE			RMT1			RMT5			RHEE			
		X1	Y1	Z1	X2	Y2	Z2	X3	Y3	Z3	X4	Y4	Z4	X5	Y5	Z5	X6	Y6	Z6	X7	Y7	Z7	X8	Y8	Z8	X9	Y9	Z9	X10	Y10	Z10	X11	Y11	Z11	X12	Y12	Z12	X13	Y13	Z13	X14	Y14	Z14	X15	Y15	Z15	X16	Y16	Z16	X17	Y17	Z17	X18	Y18	Z18	X19	Y19	Z19	X20	Y20	Z20	X21	Y21	Z21	X22	Y22	Z22	X23	Y23	Z23	X24	Y24	Z24	X25	Y25	Z25	X26	Y26	Z26	X27	Y27	Z27	X28	Y28	Z28	X29	Y29	Z29	X30	Y30	Z30	X31	Y31	Z31	X32	Y32	Z32	X33	Y33	Z33	X34	Y34	Z34	X35	Y35	Z35	X36	Y36	Z36	X37	Y37	Z37	X38	Y38	Z38	X39	Y39	Z39	X40	Y40	Z40	X41	Y41	Z41	X42	Y42	Z42	X43	Y43	Z43	X44	Y44	Z44	X45	Y45	Z45	X46	Y46	Z46	X47	Y47	Z47	X48	Y48	Z48	X49	Y49	Z49	X50	Y50	Z50	X51	Y51	Z51	X52	Y52	Z52	X53	Y53	Z53	

83	0.8200000000000001	83.63720703125	978.348388671875	1205.5830078125	21.21218109130859	981.2647705078125	1367.202514648438	24.59855461120605	1056.7099609375	1295.365112304688	-228.8241577148438	1199.214111328125	1174.390991210938	8.168177604675293	1174.435791015625	1305.793212890625	-71.83634185791016	1408.719848632812	1290.212890625	-188.8144836425781	1306.396728515625	1203.062255859375	26.68116760253906	1277.639770507812	1262.957397460938	-113.6249771118164	1371.226196289062	1386.086059570312	-218.1463623046875	1362.505981445312	1378.392822265625	-225.5041046142578	1245.027709960938	1456.626220703125	-222.87939453125	1041.071044921875	1459.322143554688	-136.1846923828125	1029.797607421875	1450.048583984375	-306.9685363769531	860.2724609375	1350.903564453125	-288.4200744628906	821.2637329101562	1409.600341796875	-244.28662109375	941.06005859375	1446.154296875	-360.371826171875	691.3680419921875	1298.904296875	-312.5192565917969	743.5706787109375	1377.573120117188	-357.9550476074219	771.6396484375	1339.113647460938	-31.32928848266602	1384.298583984375	1127.052001953125	26.31047248840332	1336.702270507812	1084.284301757812	131.4937286376953	1090.965087890625	1077.0458984375	95.39701080322266	1077.4716796875	1163.73681640625	59.01569366455078	854.2657470703125	1039.096313476562	143.7335815429688	861.8351440429688	1021.872253417969	135.9718627929688	1022.5361328125	1052.530395507812	82.67082977294922	668.8556518554688	1027.7138671875	66.81401062011719	739.0371704101562	1009.540710449219	140.4051513671875	749.0478515625	1006.986755371094	-38.88579177856445	1545.767211914062	1214.7451171875	-241.0559844970703	1604.310791015625	1183.176635742188	-178.715576171875	1590.85546875	1116.072998046875	-138.3595581054688	1557.31982421875	1319.609985351562	-71.16256713867188	928.1835327148438	1437.42529296875	20.61162185668945	928.2319946289062	1074.445434570312	-113.3413848876953	928.0610961914062	1106.576904296875	-188.0195007324219	922.2183837890625	1348.091064453125	-41.29375076293945	464.0494079589844	1414.785034179688	-67.30078125	604.950927734375	1426.023071289062	149.3010711669922	50.96726989746094	1447.141357421875	54.8563232421875	254.5653076171875	1442.46240234375	-47.60333633422852	40.28673934936523	1362.285278320312	27.74784469604492	31.56274604797363	1331.106811523438	26.44663429260254	42.61218643188477	1443.659545898438	204.5056304931641	47.71717834472656	1396.413818359375	-180.2549591064453	504.6642761230469	1025.254516601562	-79.26325988769531	745.6123046875	1032.115478515625	-274.4091796875	60.18654632568359	997.4783325195312	-232.1881408691406	390.8999633789062	1009.934204101562	-461.5454406738281	131.2543334960938	987.6226806640625	-426.8522033691406	101.6260375976562	1040.063110351562	-362.6615905761719	88.15763092041016	943.5621948242188	-247.0485382080078	36.71283340454102	1058.744262695312	
84	0.8300000000000001	77.65692901611328	976.314453125	1202.01953125	14.6485710144043	979.4318237304688	1363.457763671875	18.39282608032227	1054.66748046875	1291.618530273438	-234.1201934814453	1197.529418945312	1169.431640625	2.113829135894775	1172.26806640625	1302.044189453125	-77.33242034912109	1406.777954101562	1285.97509765625	-194.1107482910156	1304.6796875	1198.180419921875	20.9039306640625	1275.487426757812	1259.308959960938	-119.6814651489258	1369.314575195312	1381.671997070312	-224.1065979003906	1360.716674804688	1373.479614257812	-232.2155456542969	1243.022583007812	1451.329223632812	-230.9724273681641	1039.489013671875	1452.781616210938	-144.3354949951172	1027.107788085938	1444.395874023438	-318.4862976074219	862.28125	1343.072875976562	-300.5166625976562	821.9365844726562	1401.151611328125	-253.8949890136719	940.2766723632812	1439.087524414062	-377.0485534667969	695.708984375	1289.079956054688	-326.6033935546875	745.6944580078125	1368.298095703125	-371.6143188476562	775.2271728515625	1330.150634765625	-35.96360015869141	1382.337646484375	1123.08837890625	21.95647811889648	1334.988525390625	1080.916748046875	128.8375854492188	1090.127197265625	1075.334594726562	91.69216918945312	1076.438842773438	1161.543701171875	58.86652755737305	852.8126220703125	1036.949951171875	143.6358947753906	860.9288330078125	1020.770263671875	134.1250152587891	1021.679626464844	1050.971923828125	84.16131591796875	667.5015258789062	1026.527954101562	67.66036987304688	737.9667358398438	1008.821838378906	141.4203948974609	748.0432739257812	1006.226684570312	-44.07921600341797	1543.970825195312	1210.592529296875	-246.0710296630859	1602.413452148438	1178.038818359375	-183.4061889648438	1589.091186523438	1111.242919921875	-144.1316528320312	1555.419311523438	1315.00537109375	-77.84007263183594	926.3590698242188	1433.461547851562	14.98344707489014	926.0911254882812	1070.75830078125	-119.1138458251953	926.0142822265625	1102.619873046875	-194.2086486816406	920.1807250976562	1344.34912109375	-45.59140014648438	462.7224731445312	1412.382934570312	-72.43485260009766	603.483154296875	1423.035034179688	149.1089324951172	51.50439834594727	1447.177734375	52.43516159057617	254.253173828125	1441.214599609375	-47.67572021484375	40.15590667724609	1362.351928710938	27.77127838134766	31.5599422454834	1331.094482421875	26.33721733093262	42.65009689331055	1443.66015625	204.4166412353516	48.59976196289062	1396.567138671875	-186.1602630615234	503.0908203125	1020.670776367188	-84.71096801757812	743.6653442382812	1027.691162109375	-285.1680908203125	60.00936889648438	991.2250366210938	-239.0745697021484	390.0774536132812	1004.752563476562	-471.4360046386719	133.1561126708984	978.3456420898438	-437.8340148925781	103.0622482299805	1031.273559570312	-372.2059326171875	88.94355773925781	935.8346557617188	-259.1842956542969	36.08667373657227	1052.939819335938	
85	0.84	71.51559448242188	974.2864990234375	1198.296997070312	7.882021427154541	977.5768432617188	1359.539306640625	12.01188564300537	1052.55078125	1287.674194335938	-239.5761260986328	1195.841186523438	1164.336669921875	-4.081516265869141	1169.962890625	1298.1064453125	-82.80851745605469	1404.747192382812	1281.5732421875	-199.5060882568359	1302.953002929688	1193.155151367188	15.05022430419922	1273.220458984375	1255.437744140625	-125.7740707397461	1367.317016601562	1377.1015625	-230.0591278076172	1358.919677734375	1368.44091796875	-238.9976959228516	1241.009887695312	1445.87841796875	-239.2550354003906	1037.911499023438	1446.098266601562	-152.7042846679688	1024.403076171875	1438.599243164062	-330.1200866699219	864.3328247070312	1335.191162109375	-312.8251953125	822.7174072265625	1392.648193359375	-263.7279663085938	939.5303344726562	1431.893920898438	-393.793212890625	700.2232055664062	1279.330200195312	-340.8416442871094	747.9407958984375	1359.031860351562	-385.4031066894531	778.9188842773438	1321.25146484375	-40.69634246826172	1380.290161132812	1118.942138671875	17.4513053894043	1333.16064453125	1077.311767578125	125.901969909668	1089.143920898438	1073.255737304688	87.86625671386719	1075.3017578125	1159.038818359375	58.52499771118164	851.1582641601562	1034.758178710938	143.304931640625	859.9027709960938	1019.455444335938	131.9826049804688	1020.686096191406	1049.087768554688	85.62255096435547	666.0011596679688	1025.370483398438	68.46962738037109	736.8135986328125	1008.006408691406	142.2950592041016	746.9202880859375	1005.349548339844	-49.29438400268555	1542.204223632812	1206.273315429688	-251.1535339355469	1600.461059570312	1172.800659179688	-188.1926574707031	1587.288208007812	1106.292724609375	-149.9138336181641	1553.5009765625	1310.266357421875	-84.72751617431641	924.485107421875	1429.323852539062	9.217190742492676	923.9588623046875	1066.890869140625	-125.0480728149414	923.923828125	1098.462890625	-200.5783538818359	918.0797729492188	1340.38037109375	-49.85665893554688	461.4220886230469	1409.93017578125	-77.52619171142578	602.0261840820312	1419.98681640625	148.8757781982422	52.10220336914062	1447.28662109375	50.04924011230469	254.0013427734375	1439.947509765625	-47.71168899536133	40.03882217407227	1362.412841796875	27.82096099853516	31.55823516845703	1331.099487304688	26.20800971984863	42.69258499145508	1443.692138671875	204.3095245361328	49.6315803527832	1396.791748046875	-192.3389129638672	501.5649108886719	1015.969055175781	-90.36558532714844	741.7571411132812	1023.077514648438	-294.8762512207031	59.50249481201172	985.7124633789062	-245.9329833984375	389.0742492675781	999.6202392578125	-480.2520141601562	134.1881408691406	969.2876586914062	-447.8599853515625	103.9539794921875	1022.911071777344	-380.5595703125	89.02491760253906	928.6323852539062	-270.2832641601562	35.35780334472656	1047.964111328125	
86	0.85	65.22426605224609	972.2772216796875	1194.404174804688	0.9093239307403564	975.7061157226562	1355.425170898438	5.41799259185791	1050.363647460938	1283.524658203125	-245.1926727294922	1194.153564453125	1159.088989257812	-10.42947101593018	1167.537109375	1293.990478515625	-88.28218841552734	1402.646118164062	1277.013061523438	-205.0049896240234	1301.221313476562	1187.98193359375	9.112929344177246	1270.851318359375	1251.360229492188	-131.9291839599609	1365.248046875	1372.372924804688	-236.0377197265625	1357.126708984375	1363.265380859375	-245.8640899658203	1239.007690429688	1440.2705078125	-247.7237548828125	1036.346923828125	1439.3134765625	-161.2872619628906	1021.71337890625	1432.689697265625	-341.8616333007812	866.4153442382812	1327.269775390625	-325.3340148925781	823.6073608398438	1384.115356445312	-273.7805480957031	938.8231201171875	1424.608276367188	-410.4725952148438	704.8644409179688	1269.639526367188	-355.1929321289062	750.278076171875	1349.7763671875	-399.2677917480469	782.6712646484375	1312.402709960938	-45.52620315551758	1378.16357421875	1114.62109375	12.80179405212402	1331.21826171875	1073.48046875	122.6762313842773	1088.00634765625	1070.82373046875	83.88643646240234	1074.044555664062	1156.2314453125	57.96758270263672	849.2887573242188	1032.4951171875	142.7382202148438	858.7577514648438	1017.92626953125	129.5461273193359	1019.549133300781	1046.882202148438	87.03017425537109	664.3522338867188	1024.21826171875	69.25135040283203	735.5662231445312	1007.047180175781	143.0301971435547	745.6876831054688	1004.342346191406	-54.53058242797852	1540.462768554688	1201.787109375	-256.2990112304688	1598.475708007812	1167.45751953125	-193.0630035400391	1585.45263671875	1101.223510742188	-155.7032928466797	1551.583984375	1305.391723632812	-91.83377838134766	922.5733032226562	1424.991088867188	3.317783117294312	921.8372802734375	1062.835693359375	-131.1277923583984	921.8043823242188	1094.068603515625	-207.1805114746094	915.93603515625	1336.065673828125	-54.11208343505859	460.1792907714844	1407.416015625	-82.61489868164062	600.6016235351562	1416.854125976562	148.5990600585938	52.79958724975586	1447.45556640625	47.68343353271484	253.8379058837891	1438.65869140625	-47.71545028686523	39.93501281738281	1362.465698242188	27.892333984375	31.56178855895996	1331.126831054688	26.05177307128906	42.74063491821289	1443.756713867188	204.1853485107422	50.85185241699219	1397.078125	-198.7651519775391	500.0913391113281	1011.157470703125	-96.20832824707031	739.9011840820312	1018.268493652344	-303.5048522949219	58.60023498535156	981.0462036132812	-252.7258605957031	387.8643493652344	994.5607299804688	-487.9554443359375	134.2490386962891	960.5967407226562	-456.8841857910156	104.1995239257812	1015.099426269531	-387.7083435058594	88.33036041259766	922.0825805664062	-280.2801208496094	34.484619140625	1043.907348632812	
